<svg xmlns="http://www.w3.org/2000/svg" xmlns:xlink="http://www.w3.org/1999/xlink" width="500" zoomAndPan="magnify" viewBox="0 0 375 374.999991" height="500" preserveAspectRatio="xMidYMid meet" version="1.0"><defs><g/><clipPath id="21439334db"><path d="M 77.554688 76.34375 L 299.554688 76.34375 L 299.554688 298.34375 L 77.554688 298.34375 Z M 77.554688 76.34375 " clip-rule="nonzero"/></clipPath><clipPath id="558c7a66bd"><rect x="0" width="373" y="0" height="93"/></clipPath></defs><g clip-path="url(#21439334db)"><path fill="#c4f8f8" d="M 299.578125 232.042969 C 299.457031 231.609375 299.203125 231.222656 298.753906 231.035156 L 294.582031 229.308594 C 279.472656 221.15625 270.207031 205.601562 270.207031 187.496094 C 270.207031 167.691406 281.207031 150.832031 298.917969 143.496094 C 299.5 143.25 299.859375 142.6875 299.859375 142.085938 C 299.863281 141.890625 299.820312 141.691406 299.746094 141.5 C 299.707031 141.417969 299.613281 141.398438 299.570312 141.328125 C 299.566406 141.320312 299.570312 141.316406 299.570312 141.3125 C 299.25 140.53125 298.351562 140.164062 297.574219 140.484375 L 293.261719 142.273438 C 288.933594 143.585938 284.515625 144.253906 280.070312 144.253906 C 264.46875 144.253906 249.125 135.796875 240.027344 122.183594 C 231.15625 108.90625 229.515625 92.96875 235.53125 78.457031 C 235.609375 78.265625 235.648438 78.066406 235.644531 77.871094 C 235.644531 77.730469 235.566406 77.613281 235.53125 77.484375 C 235.5 77.382812 235.492188 77.296875 235.445312 77.207031 C 235.285156 76.886719 235.054688 76.609375 234.703125 76.460938 C 233.914062 76.132812 233.03125 76.511719 232.707031 77.289062 C 225.371094 94.996094 208.511719 105.996094 188.710938 105.996094 C 168.90625 105.996094 152.046875 94.996094 144.710938 77.289062 C 144.386719 76.511719 143.496094 76.140625 142.714844 76.460938 C 142.125 76.703125 141.773438 77.273438 141.773438 77.871094 C 141.773438 78.066406 141.808594 78.265625 141.886719 78.457031 C 147.902344 92.972656 146.261719 108.910156 137.390625 122.183594 C 128.292969 135.796875 112.949219 144.253906 97.347656 144.253906 C 93.09375 144.253906 88.867188 143.617188 84.722656 142.417969 L 80.121094 140.511719 C 79.65625 140.316406 79.1875 140.433594 78.789062 140.675781 C 78.308594 140.773438 77.875 141.015625 77.675781 141.5 C 77.59375 141.691406 77.558594 141.890625 77.558594 142.085938 C 77.558594 142.6875 77.914062 143.25 78.5 143.496094 C 96.210938 150.832031 107.210938 167.691406 107.210938 187.496094 C 107.210938 206.285156 97.234375 222.320312 81.09375 230.191406 L 78.96875 231.070312 C 78.785156 231.144531 78.714844 231.324219 78.582031 231.457031 C 78.550781 231.46875 78.53125 231.484375 78.5 231.492188 C 77.914062 231.738281 77.558594 232.308594 77.558594 232.902344 C 77.558594 233.101562 77.59375 233.296875 77.675781 233.488281 C 77.996094 234.269531 78.890625 234.636719 79.671875 234.316406 C 85.402344 231.945312 91.351562 230.738281 97.347656 230.738281 C 112.949219 230.738281 128.292969 239.195312 137.390625 252.808594 C 146.261719 266.085938 147.898438 282.023438 141.886719 296.535156 C 141.808594 296.726562 141.773438 296.925781 141.773438 297.121094 C 141.773438 297.71875 142.128906 298.285156 142.714844 298.53125 C 143.492188 298.855469 144.390625 298.480469 144.710938 297.703125 C 152.046875 279.996094 168.90625 268.996094 188.710938 268.996094 C 208.515625 268.996094 225.371094 279.996094 232.710938 297.703125 C 232.953125 298.292969 233.523438 298.644531 234.121094 298.644531 C 234.316406 298.644531 234.515625 298.609375 234.707031 298.53125 C 234.804688 298.488281 234.828125 298.378906 234.910156 298.324219 C 235.109375 298.203125 235.238281 298.066406 235.363281 297.875 C 235.445312 297.742188 235.492188 297.625 235.53125 297.472656 C 235.570312 297.347656 235.679688 297.261719 235.679688 297.121094 C 235.679688 296.933594 235.585938 296.792969 235.53125 296.628906 C 235.519531 296.597656 235.542969 296.566406 235.53125 296.535156 L 235.414062 296.257812 C 229.535156 281.816406 231.214844 266 240.027344 252.808594 C 249.125 239.195312 264.46875 230.738281 280.070312 230.738281 C 286.070312 230.738281 292.011719 231.945312 297.746094 234.316406 C 298.527344 234.640625 299.421875 234.269531 299.746094 233.488281 C 299.820312 233.296875 299.863281 233.101562 299.859375 232.902344 C 299.859375 232.59375 299.753906 232.296875 299.578125 232.042969 Z M 267.152344 187.496094 C 267.152344 201.976562 272.710938 214.976562 282.308594 224.230469 L 264.132812 216.703125 C 254.039062 210.738281 247.929688 199.941406 247.929688 187.496094 C 247.933594 173.382812 255.765625 161.371094 268.378906 156.144531 C 268.648438 156.035156 268.847656 155.84375 269.007812 155.628906 L 283.703125 149.539062 C 273.269531 158.855469 267.152344 172.34375 267.152344 187.496094 Z M 200.992188 213.441406 L 191.164062 189.796875 L 215.261719 199.769531 C 210.617188 200.605469 206.285156 203.292969 203.546875 207.390625 C 202.277344 209.289062 201.445312 211.339844 200.992188 213.441406 Z M 173.875 207.390625 C 171.179688 203.355469 166.9375 200.691406 162.382812 199.8125 L 186.035156 190.007812 L 176.390625 213.304688 C 175.929688 211.246094 175.113281 209.242188 173.875 207.390625 Z M 176.308594 162.007812 L 185.511719 184.148438 L 163.429688 175.007812 C 167.582031 173.925781 171.382812 171.328125 173.875 167.601562 C 175.046875 165.84375 175.835938 163.953125 176.308594 162.007812 Z M 203.546875 167.601562 C 206.074219 171.382812 209.957031 173.992188 214.1875 175.039062 L 191.675781 184.367188 L 201.046875 161.742188 C 201.507812 163.78125 202.320312 165.761719 203.546875 167.601562 Z M 188.640625 183.71875 L 178.941406 160.386719 C 181.726562 162.234375 185.070312 163.289062 188.710938 163.289062 C 192.230469 163.289062 195.488281 162.320312 198.222656 160.585938 Z M 184.867188 187.1875 L 162 196.660156 C 163.601562 194 164.503906 190.871094 164.503906 187.496094 C 164.503906 183.738281 163.367188 180.3125 161.40625 177.472656 Z M 188.644531 191.6875 L 198.035156 214.28125 C 195.34375 212.621094 192.152344 211.703125 188.710938 211.703125 C 185.214844 211.703125 181.976562 212.652344 179.253906 214.367188 Z M 192.847656 187.1875 L 215.882812 177.640625 C 214 180.445312 212.914062 183.820312 212.914062 187.496094 C 212.914062 190.804688 213.792969 193.871094 215.332031 196.5 Z M 221.066406 172.1875 C 220.089844 172.410156 219.101562 172.546875 218.105469 172.546875 C 213.429688 172.546875 208.820312 170 206.085938 165.902344 C 203.441406 161.953125 202.949219 157.21875 204.707031 152.894531 L 208.171875 144.527344 C 208.605469 148.582031 210.015625 152.550781 212.425781 156.160156 C 216.796875 162.695312 223.859375 166.992188 231.285156 167.953125 Z M 201.929688 151.613281 C 201.929688 151.625 201.914062 151.625 201.914062 151.632812 C 199.714844 156.941406 194.652344 160.234375 188.710938 160.234375 C 182.765625 160.234375 177.707031 156.941406 175.507812 151.632812 C 175.441406 151.46875 175.269531 151.410156 175.160156 151.289062 L 171.746094 143.074219 C 176.3125 146.90625 182.214844 149.097656 188.710938 149.097656 C 195.0625 149.097656 200.84375 146.992188 205.367188 143.316406 Z M 173.09375 154.28125 C 174.246094 158.210938 173.699219 162.367188 171.335938 165.902344 C 168.597656 170 163.988281 172.546875 159.3125 172.546875 C 158.503906 172.546875 157.699219 172.449219 156.902344 172.304688 L 146.324219 167.925781 C 153.683594 166.921875 160.664062 162.640625 164.992188 156.160156 C 167.320312 152.675781 168.730469 148.847656 169.210938 144.9375 Z M 152.128906 173.632812 C 152.292969 173.914062 152.523438 174.160156 152.851562 174.292969 C 158.15625 176.492188 161.449219 181.550781 161.449219 187.496094 C 161.449219 192.589844 159.015625 197.019531 154.984375 199.570312 L 144.824219 203.78125 C 148.316406 199.3125 150.308594 193.675781 150.308594 187.496094 C 150.308594 180.898438 148.0625 174.90625 144.117188 170.316406 Z M 153.433594 203.519531 C 153.628906 203.519531 153.824219 203.597656 154.015625 203.519531 C 155.738281 202.804688 157.519531 202.445312 159.3125 202.445312 C 163.988281 202.445312 168.597656 204.992188 171.335938 209.085938 C 173.996094 213.066406 174.488281 217.839844 172.6875 222.1875 C 172.667969 222.226562 172.675781 222.265625 172.664062 222.300781 L 169.25 230.546875 C 168.828125 226.460938 167.417969 222.464844 164.992188 218.832031 C 160.433594 212.015625 152.988281 207.617188 145.1875 206.933594 Z M 175.644531 223.078125 C 177.90625 217.949219 182.871094 214.757812 188.710938 214.757812 C 194.195312 214.757812 198.894531 217.585938 201.320312 222.183594 L 205.214844 231.554688 C 200.710938 227.953125 194.992188 225.898438 188.710938 225.898438 C 182.382812 225.898438 176.621094 227.980469 172.105469 231.632812 Z M 204.878906 222.785156 C 204.878906 222.777344 204.882812 222.777344 204.882812 222.769531 C 204.882812 222.457031 204.789062 222.164062 204.628906 221.921875 C 202.953125 217.648438 203.476562 212.984375 206.085938 209.085938 C 208.820312 204.988281 213.429688 202.445312 218.105469 202.445312 C 219.902344 202.445312 221.679688 202.804688 223.398438 203.519531 C 223.703125 203.644531 224.007812 203.585938 224.304688 203.519531 L 232.464844 206.898438 C 224.585938 207.519531 217.023438 211.949219 212.425781 218.828125 C 209.96875 222.503906 208.5625 226.558594 208.164062 230.691406 Z M 221.976562 199.25 C 218.230469 196.65625 215.964844 192.390625 215.964844 187.496094 C 215.964844 181.550781 219.261719 176.492188 224.570312 174.292969 C 224.828125 174.1875 225.019531 173.996094 225.183594 173.789062 L 233.179688 170.476562 C 229.316406 175.050781 227.109375 180.972656 227.109375 187.496094 C 227.109375 193.582031 229.042969 199.144531 232.433594 203.582031 Z M 240.492188 164.136719 C 238.464844 164.734375 236.40625 165.144531 234.324219 165.144531 C 226.789062 165.144531 219.371094 161.050781 214.96875 154.464844 C 210.714844 148.097656 209.910156 140.46875 212.738281 133.5 L 217.324219 122.433594 C 217.480469 129.183594 219.550781 135.863281 223.550781 141.835938 C 230.3125 151.957031 241.613281 158.339844 253.183594 158.878906 Z M 209.984375 132.164062 C 209.984375 132.171875 209.972656 132.171875 209.972656 132.179688 C 206.429688 140.730469 198.285156 146.042969 188.710938 146.042969 C 179.136719 146.042969 170.992188 140.730469 167.449219 132.179688 C 167.371094 131.992188 167.1875 131.917969 167.050781 131.78125 L 162.53125 120.902344 C 169.234375 127.515625 178.464844 131.328125 188.710938 131.328125 C 198.757812 131.328125 207.820312 127.660156 214.492188 121.277344 Z M 165.585938 136.214844 C 167.238281 142.40625 166.160156 148.914062 162.453125 154.464844 C 158.050781 161.050781 150.632812 165.144531 143.09375 165.144531 C 141.355469 165.144531 139.628906 164.863281 137.921875 164.445312 L 124.445312 158.863281 C 135.949219 158.261719 147.148438 151.902344 153.875 141.839844 C 157.757812 136.019531 159.828125 129.535156 160.082031 122.96875 Z M 132.675781 165.578125 C 132.835938 165.859375 133.066406 166.101562 133.390625 166.238281 C 141.941406 169.777344 147.253906 177.925781 147.253906 187.496094 C 147.253906 196.03125 143.011719 203.40625 136.035156 207.421875 L 122.828125 212.894531 C 128.992188 206.257812 132.542969 197.355469 132.542969 187.496094 C 132.542969 177.140625 128.640625 167.835938 121.890625 161.113281 Z M 133.984375 211.578125 C 134.179688 211.578125 134.367188 211.660156 134.5625 211.578125 C 137.332031 210.433594 140.203125 209.851562 143.097656 209.851562 C 150.632812 209.851562 158.050781 213.941406 162.453125 220.527344 C 166.734375 226.9375 167.53125 234.636719 164.625 241.640625 C 164.605469 241.6875 164.613281 241.730469 164.597656 241.773438 L 160.097656 252.640625 C 159.957031 245.859375 157.882812 239.15625 153.871094 233.152344 C 146.886719 222.703125 135.125 216.195312 123.109375 216.082031 Z M 167.605469 242.503906 C 171.21875 234.140625 179.257812 228.949219 188.710938 228.949219 C 197.945312 228.949219 205.8125 233.925781 209.53125 241.953125 L 214.386719 253.617188 C 207.722656 247.296875 198.703125 243.664062 188.710938 243.664062 C 178.691406 243.664062 169.648438 247.316406 162.984375 253.660156 Z M 212.898438 242.082031 C 212.867188 241.824219 212.816406 241.574219 212.679688 241.375 C 209.910156 234.441406 210.738281 226.855469 214.964844 220.527344 C 219.371094 213.941406 226.785156 209.851562 234.324219 209.851562 C 237.214844 209.851562 240.085938 210.433594 242.859375 211.578125 C 243.160156 211.703125 243.472656 211.644531 243.769531 211.578125 L 254.820312 216.15625 C 242.679688 216.144531 230.632812 222.554688 223.546875 233.152344 C 219.527344 239.175781 217.445312 245.90625 217.316406 252.710938 Z M 240.625 206.96875 C 234.097656 202.867188 230.164062 195.714844 230.164062 187.496094 C 230.164062 177.925781 235.476562 169.777344 244.023438 166.238281 C 244.289062 166.125 244.484375 165.933594 244.648438 165.722656 L 255.324219 161.296875 C 248.695312 168.007812 244.878906 177.242188 244.875 187.496094 C 244.875 197.25 248.359375 206.058594 254.394531 212.671875 Z M 237.488281 123.878906 C 247.144531 138.332031 263.460938 147.308594 280.070312 147.308594 C 280.492188 147.308594 280.914062 147.226562 281.332031 147.21875 L 263.5625 154.582031 C 260.628906 155.425781 257.632812 155.875 254.621094 155.875 C 243.507812 155.875 232.570312 149.847656 226.089844 140.140625 C 219.78125 130.707031 218.609375 119.390625 222.855469 109.074219 L 228.960938 94.320312 C 228.566406 104.578125 231.433594 114.816406 237.488281 123.878906 Z M 188.710938 109.054688 C 203.578125 109.054688 216.863281 103.179688 226.160156 93.105469 L 220.070312 107.8125 C 220.066406 107.816406 220.0625 107.820312 220.058594 107.824219 C 214.832031 120.4375 202.820312 128.277344 188.710938 128.277344 C 174.597656 128.277344 162.585938 120.4375 157.359375 107.824219 C 157.273438 107.609375 157.066406 107.515625 156.90625 107.367188 L 150.699219 92.4375 C 160.015625 102.910156 173.527344 109.054688 188.710938 109.054688 Z M 97.347656 147.308594 C 113.960938 147.308594 130.273438 138.332031 139.929688 123.882812 C 145.855469 115.019531 148.703125 105.039062 148.460938 95.011719 L 155.832031 112.738281 C 158.457031 122.019531 156.898438 131.8125 151.332031 140.140625 C 144.847656 149.847656 133.914062 155.875 122.796875 155.875 C 119.996094 155.875 117.214844 155.46875 114.476562 154.738281 L 96.363281 147.238281 C 96.691406 147.242188 97.015625 147.308594 97.347656 147.308594 Z M 110.265625 187.496094 C 110.265625 172.238281 104.0625 158.675781 93.503906 149.355469 L 108.324219 155.492188 C 108.484375 155.773438 108.71875 156.011719 109.039062 156.144531 C 121.652344 161.371094 129.488281 173.382812 129.488281 187.496094 C 129.488281 200.585938 122.691406 211.792969 111.648438 217.527344 L 94.867188 224.480469 C 104.621094 215.214844 110.265625 202.105469 110.265625 187.496094 Z M 139.929688 251.109375 C 130.273438 236.660156 113.960938 227.683594 97.347656 227.683594 C 96.445312 227.683594 95.546875 227.828125 94.648438 227.875 L 109.636719 221.664062 C 109.832031 221.664062 110.019531 221.746094 110.207031 221.664062 C 114.289062 219.972656 118.527344 219.117188 122.796875 219.117188 C 133.914062 219.117188 144.851562 225.140625 151.332031 234.851562 C 157.652344 244.308594 158.820312 255.660156 154.539062 266 C 154.519531 266.042969 154.523438 266.09375 154.507812 266.144531 L 148.457031 280.761719 C 148.871094 270.472656 146.003906 260.207031 139.929688 251.109375 Z M 188.710938 265.9375 C 173.882812 265.9375 160.625 271.777344 151.332031 281.800781 L 157.535156 266.8125 C 162.839844 254.417969 174.738281 246.714844 188.710938 246.714844 C 202.636719 246.714844 214.492188 254.371094 219.820312 266.699219 L 226.113281 281.832031 C 216.824219 271.789062 203.550781 265.9375 188.710938 265.9375 Z M 237.488281 251.109375 C 231.417969 260.195312 228.550781 270.453125 228.960938 280.726562 L 222.890625 266.132812 C 222.847656 265.992188 222.847656 265.84375 222.769531 265.726562 C 218.617188 255.460938 219.820312 244.226562 226.082031 234.851562 C 232.570312 225.140625 243.503906 219.117188 254.621094 219.117188 C 258.886719 219.117188 263.128906 219.972656 267.214844 221.664062 C 267.523438 221.792969 267.835938 221.738281 268.136719 221.664062 L 283.210938 227.90625 C 282.164062 227.839844 281.121094 227.683594 280.070312 227.683594 C 263.460938 227.683594 247.144531 236.660156 237.488281 251.109375 Z M 237.488281 251.109375 " fill-opacity="1" fill-rule="nonzero"/></g><g transform="matrix(1, 0, 0, 1, 1, 132)"><g clip-path="url(#558c7a66bd)"><g fill="#0097b2" fill-opacity="1"><g transform="translate(1.820251, 73.939745)"><g><path d="M 22.046875 0.734375 C 18.515625 0.734375 15.378906 0.296875 12.640625 -0.578125 C 9.898438 -1.460938 7.328125 -2.960938 4.921875 -5.078125 C 3.597656 -6.242188 2.9375 -7.539062 2.9375 -8.96875 C 2.9375 -10.09375 3.351562 -11.082031 4.1875 -11.9375 C 5.019531 -12.800781 6.023438 -13.234375 7.203125 -13.234375 C 8.128906 -13.234375 8.960938 -12.9375 9.703125 -12.34375 C 11.660156 -10.726562 13.566406 -9.550781 15.421875 -8.8125 C 17.285156 -8.082031 19.492188 -7.71875 22.046875 -7.71875 C 24.785156 -7.71875 27.144531 -8.328125 29.125 -9.546875 C 31.113281 -10.773438 32.109375 -12.296875 32.109375 -14.109375 C 32.109375 -16.316406 31.128906 -18.039062 29.171875 -19.28125 C 27.210938 -20.53125 24.101562 -21.476562 19.84375 -22.125 C 9.113281 -23.6875 3.75 -28.679688 3.75 -37.109375 C 3.75 -40.191406 4.554688 -42.875 6.171875 -45.15625 C 7.785156 -47.4375 9.988281 -49.175781 12.78125 -50.375 C 15.570312 -51.570312 18.6875 -52.171875 22.125 -52.171875 C 25.207031 -52.171875 28.109375 -51.703125 30.828125 -50.765625 C 33.546875 -49.835938 35.8125 -48.617188 37.625 -47.109375 C 39.039062 -45.972656 39.75 -44.671875 39.75 -43.203125 C 39.75 -42.078125 39.332031 -41.085938 38.5 -40.234375 C 37.664062 -39.378906 36.6875 -38.953125 35.5625 -38.953125 C 34.832031 -38.953125 34.171875 -39.171875 33.578125 -39.609375 C 32.304688 -40.640625 30.53125 -41.582031 28.25 -42.4375 C 25.976562 -43.289062 23.9375 -43.71875 22.125 -43.71875 C 19.03125 -43.71875 16.640625 -43.140625 14.953125 -41.984375 C 13.265625 -40.835938 12.421875 -39.335938 12.421875 -37.484375 C 12.421875 -35.367188 13.289062 -33.769531 15.03125 -32.6875 C 16.769531 -31.613281 19.5 -30.738281 23.21875 -30.0625 C 27.4375 -29.320312 30.804688 -28.375 33.328125 -27.21875 C 35.847656 -26.070312 37.742188 -24.503906 39.015625 -22.515625 C 40.296875 -20.535156 40.9375 -17.90625 40.9375 -14.625 C 40.9375 -11.539062 40.066406 -8.832031 38.328125 -6.5 C 36.585938 -4.175781 34.269531 -2.390625 31.375 -1.140625 C 28.488281 0.109375 25.378906 0.734375 22.046875 0.734375 Z M 22.046875 0.734375 "/></g></g></g><g fill="#0097b2" fill-opacity="1"><g transform="translate(46.352228, 73.939745)"><g><path d="M 25.125 -40.046875 C 28.507812 -40.046875 31.570312 -39.175781 34.3125 -37.4375 C 37.0625 -35.695312 39.226562 -33.285156 40.8125 -30.203125 C 42.40625 -27.117188 43.203125 -23.613281 43.203125 -19.6875 C 43.203125 -15.769531 42.414062 -12.253906 40.84375 -9.140625 C 39.28125 -6.035156 37.140625 -3.613281 34.421875 -1.875 C 31.703125 -0.132812 28.703125 0.734375 25.421875 0.734375 C 23.066406 0.734375 20.847656 0.257812 18.765625 -0.6875 C 16.691406 -1.644531 14.96875 -2.8125 13.59375 -4.1875 L 13.59375 10.21875 C 13.59375 11.488281 13.175781 12.550781 12.34375 13.40625 C 11.507812 14.269531 10.457031 14.703125 9.1875 14.703125 C 7.914062 14.703125 6.863281 14.285156 6.03125 13.453125 C 5.195312 12.617188 4.78125 11.539062 4.78125 10.21875 L 4.78125 -34.828125 C 4.78125 -36.109375 5.195312 -37.175781 6.03125 -38.03125 C 6.863281 -38.882812 7.914062 -39.3125 9.1875 -39.3125 C 10.457031 -39.3125 11.507812 -38.882812 12.34375 -38.03125 C 13.175781 -37.175781 13.59375 -36.109375 13.59375 -34.828125 L 13.59375 -34.53125 C 14.769531 -36.007812 16.410156 -37.296875 18.515625 -38.390625 C 20.617188 -39.492188 22.820312 -40.046875 25.125 -40.046875 Z M 24.03125 -7.34375 C 27.164062 -7.34375 29.738281 -8.519531 31.75 -10.875 C 33.757812 -13.226562 34.765625 -16.164062 34.765625 -19.6875 C 34.765625 -23.21875 33.769531 -26.144531 31.78125 -28.46875 C 29.800781 -30.800781 27.21875 -31.96875 24.03125 -31.96875 C 20.84375 -31.96875 18.242188 -30.800781 16.234375 -28.46875 C 14.234375 -26.144531 13.234375 -23.21875 13.234375 -19.6875 C 13.234375 -16.164062 14.234375 -13.226562 16.234375 -10.875 C 18.242188 -8.519531 20.84375 -7.34375 24.03125 -7.34375 Z M 24.03125 -7.34375 "/></g></g></g><g fill="#0097b2" fill-opacity="1"><g transform="translate(92.79483, 73.939745)"><g><path d="M 40.046875 -20.578125 C 39.992188 -19.398438 39.523438 -18.441406 38.640625 -17.703125 C 37.765625 -16.972656 36.738281 -16.609375 35.5625 -16.609375 L 11.3125 -16.609375 C 11.90625 -13.710938 13.253906 -11.441406 15.359375 -9.796875 C 17.460938 -8.160156 19.835938 -7.34375 22.484375 -7.34375 C 24.492188 -7.34375 26.0625 -7.523438 27.1875 -7.890625 C 28.3125 -8.265625 29.203125 -8.660156 29.859375 -9.078125 C 30.523438 -9.492188 30.984375 -9.773438 31.234375 -9.921875 C 32.109375 -10.359375 32.941406 -10.578125 33.734375 -10.578125 C 34.753906 -10.578125 35.632812 -10.207031 36.375 -9.46875 C 37.113281 -8.738281 37.484375 -7.882812 37.484375 -6.90625 C 37.484375 -5.582031 36.796875 -4.382812 35.421875 -3.3125 C 34.046875 -2.175781 32.207031 -1.21875 29.90625 -0.4375 C 27.601562 0.34375 25.273438 0.734375 22.921875 0.734375 C 18.804688 0.734375 15.21875 -0.117188 12.15625 -1.828125 C 9.09375 -3.546875 6.726562 -5.910156 5.0625 -8.921875 C 3.40625 -11.941406 2.578125 -15.335938 2.578125 -19.109375 C 2.578125 -23.316406 3.457031 -27.015625 5.21875 -30.203125 C 6.976562 -33.390625 9.300781 -35.828125 12.1875 -37.515625 C 15.082031 -39.203125 18.171875 -40.046875 21.453125 -40.046875 C 24.691406 -40.046875 27.742188 -39.164062 30.609375 -37.40625 C 33.472656 -35.644531 35.757812 -33.269531 37.46875 -30.28125 C 39.1875 -27.289062 40.046875 -24.054688 40.046875 -20.578125 Z M 21.453125 -31.96875 C 15.773438 -31.96875 12.421875 -29.296875 11.390625 -23.953125 L 30.640625 -23.953125 L 30.640625 -24.46875 C 30.441406 -26.53125 29.4375 -28.296875 27.625 -29.765625 C 25.8125 -31.234375 23.753906 -31.96875 21.453125 -31.96875 Z M 21.453125 -31.96875 "/></g></g></g><g fill="#0097b2" fill-opacity="1"><g transform="translate(136.077568, 73.939745)"><g><path d="M 36.59375 -40.046875 C 37.863281 -40.046875 38.914062 -39.628906 39.75 -38.796875 C 40.582031 -37.960938 41 -36.882812 41 -35.5625 L 41 -4.484375 C 41 -3.210938 40.582031 -2.144531 39.75 -1.28125 C 38.914062 -0.425781 37.863281 0 36.59375 0 C 35.320312 0 34.28125 -0.414062 33.46875 -1.25 C 32.664062 -2.082031 32.238281 -3.132812 32.1875 -4.40625 C 30.957031 -2.988281 29.300781 -1.773438 27.21875 -0.765625 C 25.144531 0.234375 22.957031 0.734375 20.65625 0.734375 C 17.269531 0.734375 14.203125 -0.132812 11.453125 -1.875 C 8.710938 -3.613281 6.546875 -6.023438 4.953125 -9.109375 C 3.367188 -12.191406 2.578125 -15.695312 2.578125 -19.625 C 2.578125 -23.539062 3.359375 -27.050781 4.921875 -30.15625 C 6.492188 -33.269531 8.640625 -35.695312 11.359375 -37.4375 C 14.078125 -39.175781 17.078125 -40.046875 20.359375 -40.046875 C 22.703125 -40.046875 24.90625 -39.617188 26.96875 -38.765625 C 29.03125 -37.910156 30.769531 -36.820312 32.1875 -35.5 L 32.1875 -35.5625 C 32.1875 -36.84375 32.601562 -37.910156 33.4375 -38.765625 C 34.269531 -39.617188 35.320312 -40.046875 36.59375 -40.046875 Z M 21.75 -7.34375 C 24.9375 -7.34375 27.53125 -8.503906 29.53125 -10.828125 C 31.539062 -13.160156 32.546875 -16.09375 32.546875 -19.625 C 32.546875 -23.144531 31.539062 -26.082031 29.53125 -28.4375 C 27.53125 -30.789062 24.9375 -31.96875 21.75 -31.96875 C 18.613281 -31.96875 16.039062 -30.789062 14.03125 -28.4375 C 12.019531 -26.082031 11.015625 -23.144531 11.015625 -19.625 C 11.015625 -16.09375 12.003906 -13.160156 13.984375 -10.828125 C 15.972656 -8.503906 18.5625 -7.34375 21.75 -7.34375 Z M 21.75 -7.34375 "/></g></g></g><g fill="#0097b2" fill-opacity="1"><g transform="translate(182.520169, 73.939745)"><g><path d="M 37.484375 -7.71875 C 38.410156 -6.738281 38.875 -5.632812 38.875 -4.40625 C 38.875 -3.1875 38.394531 -2.160156 37.4375 -1.328125 C 36.476562 -0.492188 35.460938 -0.078125 34.390625 -0.078125 C 33.117188 -0.078125 32.039062 -0.566406 31.15625 -1.546875 L 17.9375 -15.5 L 14.328125 -12.203125 L 14.328125 -4.484375 C 14.328125 -3.210938 13.910156 -2.144531 13.078125 -1.28125 C 12.242188 -0.425781 11.191406 0 9.921875 0 C 8.648438 0 7.597656 -0.425781 6.765625 -1.28125 C 5.929688 -2.144531 5.515625 -3.210938 5.515625 -4.484375 L 5.515625 -49.890625 C 5.515625 -51.171875 5.929688 -52.238281 6.765625 -53.09375 C 7.597656 -53.945312 8.648438 -54.375 9.921875 -54.375 C 11.191406 -54.375 12.242188 -53.945312 13.078125 -53.09375 C 13.910156 -52.238281 14.328125 -51.171875 14.328125 -49.890625 L 14.328125 -22.703125 L 30.0625 -37.921875 C 30.988281 -38.847656 32.0625 -39.3125 33.28125 -39.3125 C 34.363281 -39.3125 35.332031 -38.859375 36.1875 -37.953125 C 37.050781 -37.046875 37.484375 -36.128906 37.484375 -35.203125 C 37.484375 -34.023438 36.894531 -32.921875 35.71875 -31.890625 L 24.625 -21.671875 Z M 37.484375 -7.71875 "/></g></g></g><g fill="#0097b2" fill-opacity="1"><g transform="translate(224.994571, 73.939745)"><g><path d="M 50.046875 -39.3125 C 51.222656 -39.3125 52.210938 -38.882812 53.015625 -38.03125 C 53.828125 -37.175781 54.234375 -36.085938 54.234375 -34.765625 C 54.234375 -34.316406 54.132812 -33.75 53.9375 -33.0625 L 42.6875 -2.796875 C 42.394531 -1.910156 41.867188 -1.207031 41.109375 -0.6875 C 40.347656 -0.175781 39.53125 0.078125 38.65625 0.078125 L 38.0625 0 C 36.394531 -0.09375 35.144531 -1.023438 34.3125 -2.796875 L 28.078125 -20.875 L 22.125 -2.796875 C 21.289062 -1.023438 20.039062 -0.09375 18.375 0 L 17.78125 0.078125 C 16.894531 0.078125 16.070312 -0.175781 15.3125 -0.6875 C 14.5625 -1.207031 14.035156 -1.910156 13.734375 -2.796875 L 2.5 -33.0625 C 2.300781 -33.601562 2.203125 -34.171875 2.203125 -34.765625 C 2.203125 -35.984375 2.601562 -37.046875 3.40625 -37.953125 C 4.21875 -38.859375 5.285156 -39.3125 6.609375 -39.3125 C 7.585938 -39.3125 8.429688 -39.078125 9.140625 -38.609375 C 9.859375 -38.148438 10.363281 -37.453125 10.65625 -36.515625 L 18.59375 -14.984375 L 24.390625 -30.71875 C 25.179688 -32.53125 26.53125 -33.4375 28.4375 -33.4375 C 29.46875 -33.4375 30.265625 -33.210938 30.828125 -32.765625 C 31.390625 -32.328125 31.867188 -31.644531 32.265625 -30.71875 L 37.921875 -15.359375 L 45.78125 -36.515625 C 46.070312 -37.453125 46.582031 -38.148438 47.3125 -38.609375 C 48.050781 -39.078125 48.960938 -39.3125 50.046875 -39.3125 Z M 50.046875 -39.3125 "/></g></g></g><g fill="#0097b2" fill-opacity="1"><g transform="translate(282.092498, 73.939745)"><g><path d="M 40.046875 -20.578125 C 39.992188 -19.398438 39.523438 -18.441406 38.640625 -17.703125 C 37.765625 -16.972656 36.738281 -16.609375 35.5625 -16.609375 L 11.3125 -16.609375 C 11.90625 -13.710938 13.253906 -11.441406 15.359375 -9.796875 C 17.460938 -8.160156 19.835938 -7.34375 22.484375 -7.34375 C 24.492188 -7.34375 26.0625 -7.523438 27.1875 -7.890625 C 28.3125 -8.265625 29.203125 -8.660156 29.859375 -9.078125 C 30.523438 -9.492188 30.984375 -9.773438 31.234375 -9.921875 C 32.109375 -10.359375 32.941406 -10.578125 33.734375 -10.578125 C 34.753906 -10.578125 35.632812 -10.207031 36.375 -9.46875 C 37.113281 -8.738281 37.484375 -7.882812 37.484375 -6.90625 C 37.484375 -5.582031 36.796875 -4.382812 35.421875 -3.3125 C 34.046875 -2.175781 32.207031 -1.21875 29.90625 -0.4375 C 27.601562 0.34375 25.273438 0.734375 22.921875 0.734375 C 18.804688 0.734375 15.21875 -0.117188 12.15625 -1.828125 C 9.09375 -3.546875 6.726562 -5.910156 5.0625 -8.921875 C 3.40625 -11.941406 2.578125 -15.335938 2.578125 -19.109375 C 2.578125 -23.316406 3.457031 -27.015625 5.21875 -30.203125 C 6.976562 -33.390625 9.300781 -35.828125 12.1875 -37.515625 C 15.082031 -39.203125 18.171875 -40.046875 21.453125 -40.046875 C 24.691406 -40.046875 27.742188 -39.164062 30.609375 -37.40625 C 33.472656 -35.644531 35.757812 -33.269531 37.46875 -30.28125 C 39.1875 -27.289062 40.046875 -24.054688 40.046875 -20.578125 Z M 21.453125 -31.96875 C 15.773438 -31.96875 12.421875 -29.296875 11.390625 -23.953125 L 30.640625 -23.953125 L 30.640625 -24.46875 C 30.441406 -26.53125 29.4375 -28.296875 27.625 -29.765625 C 25.8125 -31.234375 23.753906 -31.96875 21.453125 -31.96875 Z M 21.453125 -31.96875 "/></g></g></g><g fill="#0097b2" fill-opacity="1"><g transform="translate(325.375219, 73.939745)"><g><path d="M 25.125 -40.046875 C 28.507812 -40.046875 31.570312 -39.175781 34.3125 -37.4375 C 37.0625 -35.695312 39.226562 -33.285156 40.8125 -30.203125 C 42.40625 -27.117188 43.203125 -23.613281 43.203125 -19.6875 C 43.203125 -15.769531 42.414062 -12.253906 40.84375 -9.140625 C 39.28125 -6.035156 37.140625 -3.613281 34.421875 -1.875 C 31.703125 -0.132812 28.703125 0.734375 25.421875 0.734375 C 23.066406 0.734375 20.847656 0.257812 18.765625 -0.6875 C 16.691406 -1.644531 14.96875 -2.8125 13.59375 -4.1875 L 13.59375 -3.75 C 13.59375 -2.476562 13.175781 -1.410156 12.34375 -0.546875 C 11.507812 0.304688 10.457031 0.734375 9.1875 0.734375 C 7.914062 0.734375 6.863281 0.316406 6.03125 -0.515625 C 5.195312 -1.347656 4.78125 -2.425781 4.78125 -3.75 L 4.78125 -49.890625 C 4.78125 -51.171875 5.195312 -52.238281 6.03125 -53.09375 C 6.863281 -53.945312 7.914062 -54.375 9.1875 -54.375 C 10.457031 -54.375 11.507812 -53.945312 12.34375 -53.09375 C 13.175781 -52.238281 13.59375 -51.171875 13.59375 -49.890625 L 13.59375 -34.53125 C 14.769531 -36.007812 16.410156 -37.296875 18.515625 -38.390625 C 20.617188 -39.492188 22.820312 -40.046875 25.125 -40.046875 Z M 24.03125 -7.34375 C 27.164062 -7.34375 29.738281 -8.519531 31.75 -10.875 C 33.757812 -13.226562 34.765625 -16.164062 34.765625 -19.6875 C 34.765625 -23.21875 33.769531 -26.144531 31.78125 -28.46875 C 29.800781 -30.800781 27.21875 -31.96875 24.03125 -31.96875 C 20.84375 -31.96875 18.242188 -30.800781 16.234375 -28.46875 C 14.234375 -26.144531 13.234375 -23.21875 13.234375 -19.6875 C 13.234375 -16.164062 14.234375 -13.226562 16.234375 -10.875 C 18.242188 -8.519531 20.84375 -7.34375 24.03125 -7.34375 Z M 24.03125 -7.34375 "/></g></g></g></g></g></svg>