<svg xmlns="http://www.w3.org/2000/svg" xmlns:xlink="http://www.w3.org/1999/xlink" width="400" zoomAndPan="magnify" viewBox="0 0 300 74.999997" height="100" preserveAspectRatio="xMidYMid meet" version="1.0"><defs><g/><clipPath id="ee72960083"><path d="M 16.480469 1.390625 L 88.480469 1.390625 L 88.480469 73.390625 L 16.480469 73.390625 Z M 16.480469 1.390625 " clip-rule="nonzero"/></clipPath><clipPath id="f39ec54292"><rect x="0" width="201" y="0" height="51"/></clipPath></defs><g clip-path="url(#ee72960083)"><path fill="#c4f8f8" d="M 88.601562 51.964844 C 88.558594 51.824219 88.476562 51.699219 88.332031 51.640625 L 86.976562 51.078125 C 82.070312 48.429688 79.058594 43.378906 79.058594 37.496094 C 79.058594 31.0625 82.632812 25.585938 88.386719 23.203125 C 88.574219 23.125 88.691406 22.941406 88.691406 22.746094 C 88.691406 22.683594 88.679688 22.617188 88.652344 22.554688 C 88.640625 22.527344 88.609375 22.523438 88.597656 22.5 C 88.59375 22.496094 88.597656 22.496094 88.597656 22.492188 C 88.492188 22.242188 88.199219 22.121094 87.949219 22.226562 L 86.546875 22.804688 C 85.140625 23.230469 83.707031 23.449219 82.261719 23.449219 C 77.195312 23.449219 72.210938 20.703125 69.253906 16.28125 C 66.375 11.96875 65.839844 6.789062 67.792969 2.078125 C 67.820312 2.015625 67.832031 1.949219 67.832031 1.886719 C 67.832031 1.839844 67.808594 1.804688 67.792969 1.761719 C 67.785156 1.726562 67.78125 1.699219 67.765625 1.671875 C 67.714844 1.566406 67.640625 1.476562 67.527344 1.429688 C 67.269531 1.320312 66.984375 1.445312 66.878906 1.695312 C 64.496094 7.449219 59.019531 11.023438 52.585938 11.023438 C 46.152344 11.023438 40.675781 7.449219 38.292969 1.695312 C 38.1875 1.445312 37.898438 1.324219 37.644531 1.429688 C 37.453125 1.507812 37.339844 1.691406 37.339844 1.886719 C 37.339844 1.949219 37.351562 2.015625 37.375 2.078125 C 39.332031 6.792969 38.796875 11.96875 35.914062 16.28125 C 32.960938 20.703125 27.976562 23.449219 22.910156 23.449219 C 21.527344 23.449219 20.152344 23.242188 18.808594 22.851562 L 17.3125 22.234375 C 17.160156 22.171875 17.011719 22.207031 16.878906 22.285156 C 16.722656 22.320312 16.582031 22.398438 16.519531 22.554688 C 16.492188 22.617188 16.480469 22.683594 16.480469 22.746094 C 16.480469 22.941406 16.597656 23.125 16.785156 23.203125 C 22.539062 25.585938 26.113281 31.0625 26.113281 37.496094 C 26.113281 43.597656 22.871094 48.808594 17.628906 51.363281 L 16.9375 51.648438 C 16.878906 51.671875 16.855469 51.734375 16.8125 51.777344 C 16.804688 51.78125 16.796875 51.785156 16.785156 51.789062 C 16.597656 51.867188 16.480469 52.050781 16.480469 52.246094 C 16.480469 52.308594 16.492188 52.371094 16.519531 52.4375 C 16.621094 52.6875 16.914062 52.808594 17.167969 52.703125 C 19.027344 51.933594 20.960938 51.542969 22.910156 51.542969 C 27.976562 51.542969 32.960938 54.289062 35.914062 58.710938 C 38.796875 63.023438 39.328125 68.203125 37.375 72.914062 C 37.351562 72.976562 37.339844 73.042969 37.339844 73.105469 C 37.339844 73.300781 37.453125 73.484375 37.644531 73.5625 C 37.898438 73.667969 38.191406 73.546875 38.292969 73.292969 C 40.675781 67.542969 46.152344 63.96875 52.585938 63.96875 C 59.019531 63.96875 64.496094 67.542969 66.878906 73.292969 C 66.957031 73.484375 67.140625 73.597656 67.335938 73.597656 C 67.398438 73.597656 67.464844 73.589844 67.527344 73.5625 C 67.558594 73.550781 67.566406 73.515625 67.59375 73.496094 C 67.65625 73.457031 67.699219 73.414062 67.738281 73.351562 C 67.765625 73.308594 67.78125 73.269531 67.792969 73.21875 C 67.808594 73.179688 67.84375 73.152344 67.84375 73.105469 C 67.84375 73.042969 67.8125 73 67.792969 72.945312 C 67.789062 72.933594 67.796875 72.925781 67.792969 72.914062 L 67.757812 72.824219 C 65.847656 68.132812 66.390625 62.996094 69.253906 58.710938 C 72.210938 54.289062 77.195312 51.542969 82.261719 51.542969 C 84.210938 51.542969 86.140625 51.933594 88.003906 52.703125 C 88.257812 52.808594 88.546875 52.6875 88.652344 52.4375 C 88.679688 52.371094 88.691406 52.308594 88.691406 52.246094 C 88.691406 52.144531 88.65625 52.046875 88.601562 51.964844 Z M 78.066406 37.496094 C 78.066406 42.199219 79.871094 46.421875 82.988281 49.429688 L 77.085938 46.984375 C 73.808594 45.046875 71.820312 41.539062 71.820312 37.496094 C 71.824219 32.910156 74.367188 29.011719 78.464844 27.3125 C 78.550781 27.277344 78.617188 27.214844 78.667969 27.144531 L 83.441406 25.167969 C 80.054688 28.191406 78.066406 32.574219 78.066406 37.496094 Z M 56.574219 45.925781 L 53.382812 38.242188 L 61.210938 41.484375 C 59.703125 41.753906 58.292969 42.628906 57.40625 43.957031 C 56.992188 44.574219 56.722656 45.242188 56.574219 45.925781 Z M 47.765625 43.957031 C 46.890625 42.648438 45.515625 41.78125 44.035156 41.496094 L 51.71875 38.3125 L 48.582031 45.878906 C 48.433594 45.210938 48.167969 44.558594 47.765625 43.957031 Z M 48.558594 29.21875 L 51.546875 36.410156 L 44.375 33.4375 C 45.722656 33.089844 46.957031 32.242188 47.765625 31.035156 C 48.148438 30.460938 48.402344 29.847656 48.558594 29.21875 Z M 57.40625 31.035156 C 58.226562 32.261719 59.488281 33.109375 60.863281 33.449219 L 53.550781 36.480469 L 56.59375 29.128906 C 56.742188 29.792969 57.007812 30.4375 57.40625 31.035156 Z M 52.5625 36.269531 L 49.414062 28.691406 C 50.316406 29.289062 51.402344 29.632812 52.585938 29.632812 C 53.730469 29.632812 54.785156 29.316406 55.675781 28.753906 Z M 51.335938 37.394531 L 43.910156 40.472656 C 44.429688 39.609375 44.722656 38.59375 44.722656 37.496094 C 44.722656 36.277344 44.355469 35.160156 43.71875 34.242188 Z M 52.566406 38.859375 L 55.613281 46.195312 C 54.742188 45.65625 53.703125 45.359375 52.585938 45.359375 C 51.449219 45.359375 50.398438 45.667969 49.515625 46.222656 Z M 53.929688 37.394531 L 61.414062 34.296875 C 60.800781 35.207031 60.449219 36.300781 60.449219 37.496094 C 60.449219 38.570312 60.734375 39.566406 61.234375 40.421875 Z M 63.097656 32.523438 C 62.777344 32.59375 62.457031 32.640625 62.132812 32.640625 C 60.613281 32.640625 59.117188 31.8125 58.230469 30.480469 C 57.371094 29.199219 57.210938 27.660156 57.78125 26.257812 L 58.90625 23.539062 C 59.050781 24.855469 59.507812 26.144531 60.289062 27.316406 C 61.710938 29.441406 64.003906 30.835938 66.414062 31.148438 Z M 56.878906 25.839844 C 56.878906 25.84375 56.875 25.84375 56.875 25.847656 C 56.160156 27.570312 54.515625 28.640625 52.585938 28.640625 C 50.65625 28.640625 49.011719 27.570312 48.296875 25.847656 C 48.277344 25.792969 48.21875 25.773438 48.183594 25.734375 L 47.074219 23.066406 C 48.558594 24.3125 50.476562 25.023438 52.585938 25.023438 C 54.648438 25.023438 56.527344 24.339844 57.996094 23.144531 Z M 47.511719 26.707031 C 47.886719 27.984375 47.710938 29.332031 46.941406 30.480469 C 46.050781 31.8125 44.554688 32.640625 43.035156 32.640625 C 42.773438 32.640625 42.511719 32.609375 42.253906 32.5625 L 38.816406 31.136719 C 41.207031 30.8125 43.476562 29.421875 44.882812 27.316406 C 45.636719 26.183594 46.09375 24.941406 46.253906 23.671875 Z M 40.703125 32.992188 C 40.757812 33.085938 40.832031 33.164062 40.9375 33.207031 C 42.660156 33.921875 43.730469 35.566406 43.730469 37.496094 C 43.730469 39.148438 42.941406 40.589844 41.632812 41.417969 L 38.332031 42.785156 C 39.464844 41.335938 40.113281 39.503906 40.113281 37.496094 C 40.113281 35.351562 39.382812 33.40625 38.101562 31.914062 Z M 41.128906 42.699219 C 41.191406 42.699219 41.253906 42.726562 41.316406 42.699219 C 41.875 42.46875 42.453125 42.351562 43.035156 42.351562 C 44.554688 42.351562 46.054688 43.179688 46.941406 44.507812 C 47.804688 45.800781 47.964844 47.351562 47.382812 48.765625 C 47.375 48.777344 47.378906 48.789062 47.375 48.800781 L 46.265625 51.480469 C 46.128906 50.152344 45.667969 48.855469 44.882812 47.675781 C 43.402344 45.460938 40.984375 44.03125 38.449219 43.808594 Z M 48.34375 49.054688 C 49.078125 47.386719 50.691406 46.351562 52.585938 46.351562 C 54.367188 46.351562 55.894531 47.269531 56.679688 48.761719 L 57.949219 51.808594 C 56.484375 50.636719 54.625 49.96875 52.585938 49.96875 C 50.53125 49.96875 48.660156 50.644531 47.191406 51.832031 Z M 57.835938 48.960938 C 57.835938 48.957031 57.839844 48.957031 57.839844 48.953125 C 57.839844 48.851562 57.808594 48.757812 57.757812 48.679688 C 57.210938 47.289062 57.382812 45.777344 58.230469 44.507812 C 59.117188 43.179688 60.613281 42.351562 62.132812 42.351562 C 62.71875 42.351562 63.296875 42.46875 63.855469 42.699219 C 63.953125 42.742188 64.050781 42.722656 64.148438 42.699219 L 66.796875 43.796875 C 64.238281 44 61.78125 45.441406 60.289062 47.675781 C 59.492188 48.867188 59.035156 50.183594 58.90625 51.527344 Z M 63.390625 41.3125 C 62.175781 40.472656 61.4375 39.085938 61.4375 37.496094 C 61.4375 35.566406 62.511719 33.921875 64.234375 33.207031 C 64.316406 33.171875 64.378906 33.109375 64.433594 33.042969 L 67.03125 31.96875 C 65.777344 33.453125 65.058594 35.378906 65.058594 37.496094 C 65.058594 39.472656 65.6875 41.28125 66.789062 42.71875 Z M 69.40625 29.910156 C 68.746094 30.101562 68.078125 30.234375 67.402344 30.234375 C 64.953125 30.234375 62.542969 28.90625 61.113281 26.765625 C 59.734375 24.699219 59.472656 22.21875 60.390625 19.957031 L 61.878906 16.363281 C 61.929688 18.554688 62.605469 20.722656 63.902344 22.664062 C 66.101562 25.953125 69.769531 28.027344 73.527344 28.199219 Z M 59.496094 19.523438 C 59.496094 19.523438 59.492188 19.523438 59.492188 19.527344 C 58.34375 22.304688 55.695312 24.03125 52.585938 24.03125 C 49.476562 24.03125 46.832031 22.304688 45.679688 19.527344 C 45.65625 19.464844 45.59375 19.441406 45.550781 19.398438 L 44.082031 15.863281 C 46.261719 18.011719 49.257812 19.25 52.585938 19.25 C 55.851562 19.25 58.792969 18.058594 60.960938 15.984375 Z M 45.074219 20.835938 C 45.613281 22.847656 45.261719 24.964844 44.058594 26.765625 C 42.628906 28.90625 40.21875 30.234375 37.769531 30.234375 C 37.203125 30.234375 36.644531 30.144531 36.089844 30.007812 L 31.710938 28.195312 C 35.445312 28 39.085938 25.933594 41.269531 22.664062 C 42.53125 20.773438 43.203125 18.667969 43.285156 16.535156 Z M 34.382812 30.375 C 34.4375 30.46875 34.511719 30.546875 34.617188 30.589844 C 37.394531 31.738281 39.121094 34.386719 39.121094 37.496094 C 39.121094 40.269531 37.742188 42.664062 35.476562 43.96875 L 31.183594 45.746094 C 33.1875 43.589844 34.339844 40.699219 34.339844 37.496094 C 34.339844 34.132812 33.074219 31.109375 30.882812 28.925781 Z M 34.808594 45.316406 C 34.871094 45.316406 34.933594 45.34375 34.996094 45.316406 C 35.898438 44.945312 36.828125 44.757812 37.769531 44.757812 C 40.21875 44.757812 42.628906 46.085938 44.054688 48.226562 C 45.449219 50.308594 45.707031 52.808594 44.761719 55.085938 C 44.757812 55.097656 44.757812 55.113281 44.753906 55.125 L 43.292969 58.65625 C 43.246094 56.453125 42.570312 54.277344 41.269531 52.324219 C 39 48.933594 35.179688 46.820312 31.277344 46.78125 Z M 45.730469 55.363281 C 46.902344 52.648438 49.515625 50.960938 52.585938 50.960938 C 55.585938 50.960938 58.140625 52.578125 59.351562 55.183594 L 60.925781 58.972656 C 58.761719 56.921875 55.832031 55.742188 52.585938 55.742188 C 49.332031 55.742188 46.394531 56.925781 44.230469 58.988281 Z M 60.441406 55.226562 C 60.433594 55.144531 60.414062 55.0625 60.371094 54.996094 C 59.472656 52.746094 59.742188 50.28125 61.113281 48.226562 C 62.542969 46.085938 64.953125 44.757812 67.402344 44.757812 C 68.339844 44.757812 69.273438 44.945312 70.175781 45.316406 C 70.273438 45.359375 70.375 45.339844 70.46875 45.316406 L 74.058594 46.804688 C 70.117188 46.800781 66.203125 48.882812 63.902344 52.324219 C 62.59375 54.285156 61.917969 56.46875 61.878906 58.679688 Z M 69.449219 43.820312 C 67.328125 42.488281 66.050781 40.167969 66.050781 37.496094 C 66.050781 34.386719 67.777344 31.738281 70.554688 30.589844 C 70.640625 30.554688 70.703125 30.492188 70.757812 30.421875 L 74.222656 28.984375 C 72.070312 31.167969 70.832031 34.164062 70.832031 37.496094 C 70.832031 40.664062 71.960938 43.527344 73.921875 45.675781 Z M 68.429688 16.832031 C 71.566406 21.527344 76.867188 24.441406 82.261719 24.441406 C 82.398438 24.441406 82.535156 24.414062 82.671875 24.414062 L 76.898438 26.804688 C 75.945312 27.078125 74.972656 27.226562 73.996094 27.226562 C 70.386719 27.226562 66.832031 25.265625 64.726562 22.113281 C 62.679688 19.050781 62.296875 15.371094 63.675781 12.023438 L 65.660156 7.230469 C 65.53125 10.5625 66.464844 13.886719 68.429688 16.832031 Z M 52.585938 12.015625 C 57.414062 12.015625 61.730469 10.109375 64.75 6.835938 L 62.773438 11.613281 C 62.773438 11.613281 62.769531 11.613281 62.769531 11.617188 C 61.070312 15.714844 57.167969 18.257812 52.585938 18.257812 C 48 18.257812 44.101562 15.714844 42.402344 11.617188 C 42.375 11.546875 42.308594 11.515625 42.253906 11.46875 L 40.238281 6.617188 C 43.265625 10.019531 47.652344 12.015625 52.585938 12.015625 Z M 22.910156 24.441406 C 28.304688 24.441406 33.605469 21.527344 36.742188 16.832031 C 38.664062 13.953125 39.589844 10.710938 39.511719 7.453125 L 41.90625 13.210938 C 42.757812 16.226562 42.253906 19.410156 40.445312 22.113281 C 38.339844 25.265625 34.785156 27.222656 31.175781 27.222656 C 30.265625 27.222656 29.363281 27.09375 28.472656 26.855469 L 22.589844 24.417969 C 22.695312 24.421875 22.800781 24.441406 22.910156 24.441406 Z M 27.105469 37.496094 C 27.105469 32.539062 25.089844 28.132812 21.660156 25.105469 L 26.472656 27.101562 C 26.527344 27.191406 26.601562 27.269531 26.707031 27.3125 C 30.804688 29.011719 33.347656 32.910156 33.347656 37.496094 C 33.347656 41.746094 31.140625 45.386719 27.554688 47.25 L 22.101562 49.507812 C 25.273438 46.5 27.105469 42.242188 27.105469 37.496094 Z M 36.738281 58.160156 C 33.605469 53.464844 28.304688 50.550781 22.910156 50.550781 C 22.613281 50.550781 22.324219 50.597656 22.03125 50.613281 L 26.902344 48.59375 C 26.964844 48.59375 27.023438 48.621094 27.085938 48.59375 C 28.414062 48.046875 29.789062 47.765625 31.175781 47.765625 C 34.785156 47.765625 38.339844 49.722656 40.445312 52.878906 C 42.496094 55.949219 42.878906 59.636719 41.484375 62.996094 C 41.480469 63.011719 41.480469 63.027344 41.476562 63.042969 L 39.511719 67.789062 C 39.644531 64.449219 38.714844 61.113281 36.738281 58.160156 Z M 52.585938 62.976562 C 47.769531 62.976562 43.464844 64.871094 40.445312 68.128906 L 42.460938 63.261719 C 44.183594 59.234375 48.046875 56.734375 52.585938 56.734375 C 57.109375 56.734375 60.960938 59.21875 62.691406 63.222656 L 64.734375 68.136719 C 61.71875 64.875 57.40625 62.976562 52.585938 62.976562 Z M 68.429688 58.160156 C 66.457031 61.109375 65.527344 64.441406 65.660156 67.78125 L 63.6875 63.039062 C 63.675781 62.996094 63.675781 62.945312 63.648438 62.90625 C 62.300781 59.574219 62.691406 55.921875 64.726562 52.878906 C 66.832031 49.722656 70.382812 47.765625 73.996094 47.765625 C 75.382812 47.765625 76.757812 48.046875 78.085938 48.59375 C 78.1875 48.636719 78.289062 48.617188 78.386719 48.59375 L 83.28125 50.621094 C 82.941406 50.601562 82.601562 50.550781 82.261719 50.550781 C 76.867188 50.550781 71.566406 53.464844 68.429688 58.160156 Z M 68.429688 58.160156 " fill-opacity="1" fill-rule="nonzero"/></g><g transform="matrix(1, 0, 0, 1, 92, 12)"><g clip-path="url(#f39ec54292)"><g fill="#0097b2" fill-opacity="1"><g transform="translate(1.122266, 39.886198)"><g><path d="M 11.890625 0.390625 C 9.984375 0.390625 8.289062 0.15625 6.8125 -0.3125 C 5.332031 -0.789062 3.945312 -1.597656 2.65625 -2.734375 C 1.9375 -3.367188 1.578125 -4.066406 1.578125 -4.828125 C 1.578125 -5.441406 1.800781 -5.976562 2.25 -6.4375 C 2.707031 -6.894531 3.253906 -7.125 3.890625 -7.125 C 4.390625 -7.125 4.835938 -6.96875 5.234375 -6.65625 C 6.285156 -5.78125 7.3125 -5.144531 8.3125 -4.75 C 9.320312 -4.351562 10.515625 -4.15625 11.890625 -4.15625 C 13.367188 -4.15625 14.640625 -4.484375 15.703125 -5.140625 C 16.773438 -5.804688 17.3125 -6.628906 17.3125 -7.609375 C 17.3125 -8.796875 16.78125 -9.722656 15.71875 -10.390625 C 14.664062 -11.066406 12.992188 -11.578125 10.703125 -11.921875 C 4.910156 -12.765625 2.015625 -15.460938 2.015625 -20.015625 C 2.015625 -21.671875 2.453125 -23.113281 3.328125 -24.34375 C 4.203125 -25.570312 5.390625 -26.507812 6.890625 -27.15625 C 8.398438 -27.8125 10.078125 -28.140625 11.921875 -28.140625 C 13.585938 -28.140625 15.15625 -27.882812 16.625 -27.375 C 18.09375 -26.875 19.3125 -26.21875 20.28125 -25.40625 C 21.050781 -24.789062 21.4375 -24.085938 21.4375 -23.296875 C 21.4375 -22.691406 21.210938 -22.15625 20.765625 -21.6875 C 20.316406 -21.226562 19.785156 -21 19.171875 -21 C 18.773438 -21 18.421875 -21.117188 18.109375 -21.359375 C 17.421875 -21.910156 16.460938 -22.414062 15.234375 -22.875 C 14.003906 -23.34375 12.898438 -23.578125 11.921875 -23.578125 C 10.265625 -23.578125 8.976562 -23.265625 8.0625 -22.640625 C 7.15625 -22.023438 6.703125 -21.210938 6.703125 -20.203125 C 6.703125 -19.066406 7.171875 -18.207031 8.109375 -17.625 C 9.046875 -17.050781 10.515625 -16.578125 12.515625 -16.203125 C 14.785156 -15.804688 16.601562 -15.296875 17.96875 -14.671875 C 19.332031 -14.054688 20.359375 -13.210938 21.046875 -12.140625 C 21.734375 -11.078125 22.078125 -9.660156 22.078125 -7.890625 C 22.078125 -6.222656 21.601562 -4.757812 20.65625 -3.5 C 19.71875 -2.25 18.46875 -1.285156 16.90625 -0.609375 C 15.351562 0.0546875 13.679688 0.390625 11.890625 0.390625 Z M 11.890625 0.390625 "/></g></g></g><g fill="#0097b2" fill-opacity="1"><g transform="translate(25.136642, 39.886198)"><g><path d="M 13.546875 -21.59375 C 15.367188 -21.59375 17.019531 -21.125 18.5 -20.1875 C 19.976562 -19.25 21.144531 -17.945312 22 -16.28125 C 22.863281 -14.625 23.296875 -12.738281 23.296875 -10.625 C 23.296875 -8.507812 22.875 -6.613281 22.03125 -4.9375 C 21.1875 -3.257812 20.03125 -1.953125 18.5625 -1.015625 C 17.09375 -0.078125 15.472656 0.390625 13.703125 0.390625 C 12.441406 0.390625 11.25 0.132812 10.125 -0.375 C 9 -0.894531 8.066406 -1.523438 7.328125 -2.265625 L 7.328125 5.515625 C 7.328125 6.191406 7.101562 6.757812 6.65625 7.21875 C 6.207031 7.6875 5.640625 7.921875 4.953125 7.921875 C 4.265625 7.921875 3.695312 7.695312 3.25 7.25 C 2.800781 6.800781 2.578125 6.222656 2.578125 5.515625 L 2.578125 -18.78125 C 2.578125 -19.46875 2.800781 -20.039062 3.25 -20.5 C 3.695312 -20.96875 4.265625 -21.203125 4.953125 -21.203125 C 5.640625 -21.203125 6.207031 -20.96875 6.65625 -20.5 C 7.101562 -20.039062 7.328125 -19.46875 7.328125 -18.78125 L 7.328125 -18.625 C 7.960938 -19.414062 8.847656 -20.109375 9.984375 -20.703125 C 11.117188 -21.296875 12.304688 -21.59375 13.546875 -21.59375 Z M 12.953125 -3.96875 C 14.648438 -3.96875 16.039062 -4.597656 17.125 -5.859375 C 18.207031 -7.128906 18.75 -8.71875 18.75 -10.625 C 18.75 -12.519531 18.210938 -14.09375 17.140625 -15.34375 C 16.066406 -16.601562 14.671875 -17.234375 12.953125 -17.234375 C 11.234375 -17.234375 9.832031 -16.601562 8.75 -15.34375 C 7.664062 -14.09375 7.125 -12.519531 7.125 -10.625 C 7.125 -8.71875 7.664062 -7.128906 8.75 -5.859375 C 9.832031 -4.597656 11.234375 -3.96875 12.953125 -3.96875 Z M 12.953125 -3.96875 "/></g></g></g><g fill="#0097b2" fill-opacity="1"><g transform="translate(50.181345, 39.886198)"><g><path d="M 21.59375 -11.09375 C 21.570312 -10.457031 21.320312 -9.941406 20.84375 -9.546875 C 20.363281 -9.148438 19.804688 -8.953125 19.171875 -8.953125 L 6.109375 -8.953125 C 6.421875 -7.398438 7.144531 -6.179688 8.28125 -5.296875 C 9.414062 -4.410156 10.695312 -3.96875 12.125 -3.96875 C 13.207031 -3.96875 14.050781 -4.066406 14.65625 -4.265625 C 15.269531 -4.460938 15.753906 -4.671875 16.109375 -4.890625 C 16.460938 -5.117188 16.707031 -5.269531 16.84375 -5.34375 C 17.3125 -5.582031 17.757812 -5.703125 18.1875 -5.703125 C 18.738281 -5.703125 19.210938 -5.503906 19.609375 -5.109375 C 20.003906 -4.710938 20.203125 -4.25 20.203125 -3.71875 C 20.203125 -3.007812 19.832031 -2.363281 19.09375 -1.78125 C 18.351562 -1.175781 17.363281 -0.660156 16.125 -0.234375 C 14.882812 0.179688 13.628906 0.390625 12.359375 0.390625 C 10.140625 0.390625 8.203125 -0.0664062 6.546875 -0.984375 C 4.898438 -1.910156 3.628906 -3.1875 2.734375 -4.8125 C 1.835938 -6.4375 1.390625 -8.265625 1.390625 -10.296875 C 1.390625 -12.566406 1.863281 -14.5625 2.8125 -16.28125 C 3.757812 -18 5.015625 -19.3125 6.578125 -20.21875 C 8.140625 -21.132812 9.804688 -21.59375 11.578125 -21.59375 C 13.316406 -21.59375 14.957031 -21.117188 16.5 -20.171875 C 18.050781 -19.222656 19.285156 -17.941406 20.203125 -16.328125 C 21.128906 -14.710938 21.59375 -12.96875 21.59375 -11.09375 Z M 11.578125 -17.234375 C 8.503906 -17.234375 6.691406 -15.796875 6.140625 -12.921875 L 16.53125 -12.921875 L 16.53125 -13.1875 C 16.414062 -14.300781 15.867188 -15.253906 14.890625 -16.046875 C 13.921875 -16.835938 12.816406 -17.234375 11.578125 -17.234375 Z M 11.578125 -17.234375 "/></g></g></g><g fill="#0097b2" fill-opacity="1"><g transform="translate(73.522054, 39.886198)"><g><path d="M 19.734375 -21.59375 C 20.421875 -21.59375 20.988281 -21.367188 21.4375 -20.921875 C 21.882812 -20.472656 22.109375 -19.890625 22.109375 -19.171875 L 22.109375 -2.421875 C 22.109375 -1.734375 21.882812 -1.15625 21.4375 -0.6875 C 20.988281 -0.226562 20.421875 0 19.734375 0 C 19.046875 0 18.484375 -0.222656 18.046875 -0.671875 C 17.609375 -1.117188 17.378906 -1.6875 17.359375 -2.375 C 16.691406 -1.613281 15.796875 -0.960938 14.671875 -0.421875 C 13.554688 0.117188 12.378906 0.390625 11.140625 0.390625 C 9.316406 0.390625 7.664062 -0.078125 6.1875 -1.015625 C 4.707031 -1.953125 3.535156 -3.25 2.671875 -4.90625 C 1.816406 -6.570312 1.390625 -8.460938 1.390625 -10.578125 C 1.390625 -12.691406 1.8125 -14.585938 2.65625 -16.265625 C 3.5 -17.941406 4.65625 -19.25 6.125 -20.1875 C 7.59375 -21.125 9.207031 -21.59375 10.96875 -21.59375 C 12.238281 -21.59375 13.425781 -21.359375 14.53125 -20.890625 C 15.644531 -20.429688 16.585938 -19.847656 17.359375 -19.140625 L 17.359375 -19.171875 C 17.359375 -19.859375 17.582031 -20.429688 18.03125 -20.890625 C 18.476562 -21.359375 19.046875 -21.59375 19.734375 -21.59375 Z M 11.734375 -3.96875 C 13.441406 -3.96875 14.835938 -4.59375 15.921875 -5.84375 C 17.003906 -7.101562 17.546875 -8.679688 17.546875 -10.578125 C 17.546875 -12.484375 17.003906 -14.066406 15.921875 -15.328125 C 14.835938 -16.597656 13.441406 -17.234375 11.734375 -17.234375 C 10.035156 -17.234375 8.644531 -16.597656 7.5625 -15.328125 C 6.476562 -14.066406 5.9375 -12.484375 5.9375 -10.578125 C 5.9375 -8.679688 6.472656 -7.101562 7.546875 -5.84375 C 8.617188 -4.59375 10.015625 -3.96875 11.734375 -3.96875 Z M 11.734375 -3.96875 "/></g></g></g><g fill="#0097b2" fill-opacity="1"><g transform="translate(98.566757, 39.886198)"><g><path d="M 20.203125 -4.15625 C 20.710938 -3.632812 20.96875 -3.039062 20.96875 -2.375 C 20.96875 -1.71875 20.707031 -1.164062 20.1875 -0.71875 C 19.675781 -0.269531 19.128906 -0.046875 18.546875 -0.046875 C 17.859375 -0.046875 17.273438 -0.304688 16.796875 -0.828125 L 9.671875 -8.359375 L 7.734375 -6.578125 L 7.734375 -2.421875 C 7.734375 -1.734375 7.503906 -1.15625 7.046875 -0.6875 C 6.597656 -0.226562 6.03125 0 5.34375 0 C 4.65625 0 4.085938 -0.226562 3.640625 -0.6875 C 3.191406 -1.15625 2.96875 -1.734375 2.96875 -2.421875 L 2.96875 -26.90625 C 2.96875 -27.59375 3.191406 -28.164062 3.640625 -28.625 C 4.085938 -29.09375 4.65625 -29.328125 5.34375 -29.328125 C 6.03125 -29.328125 6.597656 -29.09375 7.046875 -28.625 C 7.503906 -28.164062 7.734375 -27.59375 7.734375 -26.90625 L 7.734375 -12.25 L 16.203125 -20.453125 C 16.703125 -20.953125 17.285156 -21.203125 17.953125 -21.203125 C 18.535156 -21.203125 19.054688 -20.957031 19.515625 -20.46875 C 19.972656 -19.976562 20.203125 -19.484375 20.203125 -18.984375 C 20.203125 -18.347656 19.882812 -17.753906 19.25 -17.203125 L 13.28125 -11.6875 Z M 20.203125 -4.15625 "/></g></g></g><g fill="#0097b2" fill-opacity="1"><g transform="translate(121.471562, 39.886198)"><g><path d="M 26.984375 -21.203125 C 27.617188 -21.203125 28.15625 -20.96875 28.59375 -20.5 C 29.03125 -20.039062 29.25 -19.457031 29.25 -18.75 C 29.25 -18.507812 29.191406 -18.203125 29.078125 -17.828125 L 23.015625 -1.5 C 22.859375 -1.03125 22.578125 -0.65625 22.171875 -0.375 C 21.765625 -0.09375 21.320312 0.046875 20.84375 0.046875 L 20.53125 0 C 19.625 -0.0507812 18.945312 -0.550781 18.5 -1.5 L 15.140625 -11.25 L 11.921875 -1.5 C 11.472656 -0.550781 10.800781 -0.0507812 9.90625 0 L 9.59375 0.046875 C 9.113281 0.046875 8.664062 -0.09375 8.25 -0.375 C 7.84375 -0.65625 7.5625 -1.03125 7.40625 -1.5 L 1.34375 -17.828125 C 1.238281 -18.117188 1.1875 -18.425781 1.1875 -18.75 C 1.1875 -19.40625 1.40625 -19.976562 1.84375 -20.46875 C 2.28125 -20.957031 2.851562 -21.203125 3.5625 -21.203125 C 4.09375 -21.203125 4.550781 -21.078125 4.9375 -20.828125 C 5.320312 -20.578125 5.59375 -20.195312 5.75 -19.6875 L 10.03125 -8.078125 L 13.15625 -16.5625 C 13.582031 -17.539062 14.304688 -18.03125 15.328125 -18.03125 C 15.890625 -18.03125 16.320312 -17.910156 16.625 -17.671875 C 16.925781 -17.429688 17.179688 -17.0625 17.390625 -16.5625 L 20.453125 -8.28125 L 24.6875 -19.6875 C 24.84375 -20.195312 25.117188 -20.578125 25.515625 -20.828125 C 25.910156 -21.078125 26.398438 -21.203125 26.984375 -21.203125 Z M 26.984375 -21.203125 "/></g></g></g><g fill="#0097b2" fill-opacity="1"><g transform="translate(152.26227, 39.886198)"><g><path d="M 21.59375 -11.09375 C 21.570312 -10.457031 21.320312 -9.941406 20.84375 -9.546875 C 20.363281 -9.148438 19.804688 -8.953125 19.171875 -8.953125 L 6.109375 -8.953125 C 6.421875 -7.398438 7.144531 -6.179688 8.28125 -5.296875 C 9.414062 -4.410156 10.695312 -3.96875 12.125 -3.96875 C 13.207031 -3.96875 14.050781 -4.066406 14.65625 -4.265625 C 15.269531 -4.460938 15.753906 -4.671875 16.109375 -4.890625 C 16.460938 -5.117188 16.707031 -5.269531 16.84375 -5.34375 C 17.3125 -5.582031 17.757812 -5.703125 18.1875 -5.703125 C 18.738281 -5.703125 19.210938 -5.503906 19.609375 -5.109375 C 20.003906 -4.710938 20.203125 -4.25 20.203125 -3.71875 C 20.203125 -3.007812 19.832031 -2.363281 19.09375 -1.78125 C 18.351562 -1.175781 17.363281 -0.660156 16.125 -0.234375 C 14.882812 0.179688 13.628906 0.390625 12.359375 0.390625 C 10.140625 0.390625 8.203125 -0.0664062 6.546875 -0.984375 C 4.898438 -1.910156 3.628906 -3.1875 2.734375 -4.8125 C 1.835938 -6.4375 1.390625 -8.265625 1.390625 -10.296875 C 1.390625 -12.566406 1.863281 -14.5625 2.8125 -16.28125 C 3.757812 -18 5.015625 -19.3125 6.578125 -20.21875 C 8.140625 -21.132812 9.804688 -21.59375 11.578125 -21.59375 C 13.316406 -21.59375 14.957031 -21.117188 16.5 -20.171875 C 18.050781 -19.222656 19.285156 -17.941406 20.203125 -16.328125 C 21.128906 -14.710938 21.59375 -12.96875 21.59375 -11.09375 Z M 11.578125 -17.234375 C 8.503906 -17.234375 6.691406 -15.796875 6.140625 -12.921875 L 16.53125 -12.921875 L 16.53125 -13.1875 C 16.414062 -14.300781 15.867188 -15.253906 14.890625 -16.046875 C 13.921875 -16.835938 12.816406 -17.234375 11.578125 -17.234375 Z M 11.578125 -17.234375 "/></g></g></g><g fill="#0097b2" fill-opacity="1"><g transform="translate(175.602971, 39.886198)"><g><path d="M 13.546875 -21.59375 C 15.367188 -21.59375 17.019531 -21.125 18.5 -20.1875 C 19.976562 -19.25 21.144531 -17.945312 22 -16.28125 C 22.863281 -14.625 23.296875 -12.738281 23.296875 -10.625 C 23.296875 -8.507812 22.875 -6.613281 22.03125 -4.9375 C 21.1875 -3.257812 20.03125 -1.953125 18.5625 -1.015625 C 17.09375 -0.078125 15.472656 0.390625 13.703125 0.390625 C 12.441406 0.390625 11.25 0.132812 10.125 -0.375 C 9 -0.894531 8.066406 -1.523438 7.328125 -2.265625 L 7.328125 -2.015625 C 7.328125 -1.328125 7.101562 -0.753906 6.65625 -0.296875 C 6.207031 0.160156 5.640625 0.390625 4.953125 0.390625 C 4.265625 0.390625 3.695312 0.164062 3.25 -0.28125 C 2.800781 -0.726562 2.578125 -1.304688 2.578125 -2.015625 L 2.578125 -26.90625 C 2.578125 -27.59375 2.800781 -28.164062 3.25 -28.625 C 3.695312 -29.09375 4.265625 -29.328125 4.953125 -29.328125 C 5.640625 -29.328125 6.207031 -29.09375 6.65625 -28.625 C 7.101562 -28.164062 7.328125 -27.59375 7.328125 -26.90625 L 7.328125 -18.625 C 7.960938 -19.414062 8.847656 -20.109375 9.984375 -20.703125 C 11.117188 -21.296875 12.304688 -21.59375 13.546875 -21.59375 Z M 12.953125 -3.96875 C 14.648438 -3.96875 16.039062 -4.597656 17.125 -5.859375 C 18.207031 -7.128906 18.75 -8.71875 18.75 -10.625 C 18.75 -12.519531 18.210938 -14.09375 17.140625 -15.34375 C 16.066406 -16.601562 14.671875 -17.234375 12.953125 -17.234375 C 11.234375 -17.234375 9.832031 -16.601562 8.75 -15.34375 C 7.664062 -14.09375 7.125 -12.519531 7.125 -10.625 C 7.125 -8.71875 7.664062 -7.128906 8.75 -5.859375 C 9.832031 -4.597656 11.234375 -3.96875 12.953125 -3.96875 Z M 12.953125 -3.96875 "/></g></g></g></g></g></svg>